<?xml version="1.0" standalone="no"?>
<!DOCTYPE svg PUBLIC "-//W3C//DTD SVG 20010904//EN"
 "http://www.w3.org/TR/2001/REC-SVG-20010904/DTD/svg10.dtd">
<svg version="1.0" xmlns="http://www.w3.org/2000/svg"
 width="500.000000pt" height="500.000000pt" viewBox="0 0 500.000000 500.000000"
 preserveAspectRatio="xMidYMid meet">

<g transform="translate(0.000000,500.000000) scale(0.100000,-0.100000)"
fill="#000000" stroke="none">
<path d="M2537 4470 c-27 -48 -30 -50 -70 -50 -62 0 -291 -35 -385 -60 -565
-144 -1039 -531 -1306 -1067 -32 -64 -82 -196 -122 -323 -52 -165 -79 -529
-55 -741 41 -350 145 -640 334 -926 244 -369 683 -680 1110 -788 154 -39 318
-65 406 -65 l61 0 27 -55 27 -56 28 56 28 55 58 0 c126 0 447 68 596 127 223
87 465 240 640 405 173 162 295 332 412 572 96 200 128 295 165 495 112 614
-23 1173 -396 1636 -40 50 -103 119 -140 155 -38 36 -78 74 -89 85 -85 83
-269 207 -421 283 -218 111 -475 182 -753 208 l-73 7 -25 48 c-13 27 -25 49
-27 49 -1 0 -15 -23 -30 -50z m-170 -304 c-3 -8 -17 -32 -31 -54 -23 -36 -30
-41 -78 -47 -79 -11 -261 -71 -361 -120 -150 -75 -242 -135 -349 -229 -121
-105 -151 -138 -242 -260 l-66 -88 38 -69 c20 -38 40 -69 44 -69 4 0 15 15 24
33 103 200 349 428 593 551 64 33 268 102 276 94 2 -2 -13 -33 -35 -69 -36
-60 -44 -68 -97 -88 -32 -12 -108 -49 -169 -82 -89 -48 -133 -80 -217 -160
-133 -125 -217 -250 -374 -556 -63 -123 -116 -223 -119 -223 -6 0 -64 118 -64
131 0 6 18 49 40 96 l39 85 -38 76 -39 77 -52 -110 c-139 -296 -145 -321 -145
-610 0 -227 7 -297 26 -278 5 5 29 42 54 82 l45 73 0 141 c0 78 4 148 9 156 7
11 29 -25 80 -132 l71 -147 -59 -118 c-32 -64 -79 -155 -105 -201 -25 -46 -46
-89 -46 -95 1 -6 18 -44 39 -84 l37 -74 34 74 c28 60 146 284 178 338 7 11 18
-2 45 -56 l36 -71 -42 -75 c-37 -67 -125 -219 -238 -410 -19 -33 -39 -61 -45
-62 -5 0 -35 51 -66 114 -138 276 -208 646 -178 945 60 616 401 1120 952 1409
194 102 616 217 595 162z m335 -216 c66 -113 161 -272 211 -355 49 -82 121
-204 160 -270 70 -121 281 -486 323 -560 l23 -40 -45 -78 c-24 -42 -46 -77
-48 -77 -6 0 -62 90 -98 160 -19 36 -66 118 -104 182 -38 65 -79 136 -90 158
-48 89 -206 350 -212 350 -9 0 -146 -103 -206 -155 l-46 -40 0 -120 c0 -72 -4
-115 -9 -110 -10 11 -135 223 -159 270 -8 17 -33 61 -55 98 -35 60 -41 66 -52
50 -6 -10 -56 -94 -110 -188 -54 -93 -113 -192 -130 -220 -63 -100 -125 -225
-125 -254 0 -19 11 -43 30 -65 35 -39 54 -45 250 -71 361 -48 1006 -148 1047
-161 27 -9 73 -32 103 -52 59 -41 91 -87 269 -402 52 -91 123 -213 157 -271
35 -58 67 -114 71 -125 4 -10 21 -41 38 -69 17 -27 48 -80 68 -117 l37 -68
-528 0 -527 0 -172 -288 c-94 -158 -177 -299 -184 -314 -7 -16 -15 -28 -19
-28 -6 0 -180 284 -180 294 0 2 -43 75 -95 162 -52 87 -95 162 -95 166 0 4
-236 9 -525 10 l-524 3 98 165 c120 203 248 425 313 545 27 50 60 106 73 125
12 19 43 70 68 113 l44 79 42 -77 c22 -42 41 -80 41 -85 0 -4 -27 -58 -59
-119 l-59 -111 113 0 c63 0 116 -4 119 -9 4 -5 -7 -31 -23 -58 -45 -76 -126
-223 -155 -280 -15 -29 -28 -53 -30 -53 -2 0 -32 52 -67 115 l-63 115 -32 -57
c-18 -32 -57 -101 -88 -154 -31 -53 -56 -99 -56 -103 0 -3 131 -6 290 -6 168
0 290 4 290 9 0 5 -18 42 -41 81 -47 83 -47 84 26 166 l42 48 55 -100 c31 -54
67 -120 80 -146 12 -26 25 -47 28 -47 3 -1 21 27 42 62 20 34 65 112 100 172
36 61 100 170 143 242 42 73 81 130 86 128 4 -3 23 -34 42 -68 18 -34 64 -114
102 -177 37 -63 94 -162 127 -220 32 -58 67 -116 77 -129 l18 -23 42 68 c24
38 65 107 91 154 27 47 73 127 102 177 l53 93 103 0 c92 0 120 -7 93 -25 -6
-3 -24 -31 -42 -63 -18 -31 -51 -86 -74 -122 -23 -36 -58 -94 -77 -130 -19
-36 -47 -83 -62 -105 l-28 -40 288 -3 c158 -1 290 0 293 3 3 4 -2 18 -11 33
-10 15 -30 52 -46 82 -17 30 -73 127 -126 214 -53 88 -96 161 -96 163 0 2 -20
39 -45 83 -81 140 -143 180 -326 209 -268 44 -581 92 -729 111 -235 30 -374
57 -427 80 -100 44 -173 148 -173 245 0 56 28 123 100 240 23 39 65 108 92
155 27 47 53 92 58 100 5 8 31 51 57 95 26 44 69 114 95 155 26 41 48 79 48
83 0 4 16 34 37 65 42 66 133 216 253 419 55 92 88 138 93 130 4 -6 62 -104
129 -217z m138 219 c27 -6 50 -15 50 -20 0 -5 -12 -28 -26 -50 -21 -33 -28
-38 -40 -29 -8 7 -14 16 -14 21 0 5 -11 27 -25 49 -29 45 -26 46 55 29z m308
-83 c221 -75 437 -206 606 -369 l107 -102 -71 -128 -71 -127 36 -65 c20 -36
41 -65 46 -65 6 0 24 30 41 68 17 37 48 97 70 134 l40 67 43 -57 c51 -68 150
-255 198 -372 78 -192 114 -424 104 -686 -8 -211 -29 -342 -81 -499 -43 -129
-130 -325 -144 -325 -4 0 -20 25 -36 56 -16 30 -54 97 -84 147 -30 51 -69 119
-87 152 -18 33 -59 105 -90 160 -32 55 -70 122 -85 149 l-28 48 35 59 c20 33
39 62 44 65 5 3 74 -129 154 -293 l146 -297 34 79 c19 44 35 84 35 90 0 5 -48
104 -106 219 l-106 210 32 66 c18 36 51 97 74 135 l41 70 6 -55 c4 -30 7 -107
8 -170 1 -91 5 -121 18 -140 9 -13 29 -47 44 -74 18 -33 30 -45 33 -36 13 36
26 180 26 278 0 226 -38 386 -144 607 l-53 110 -39 -77 -38 -78 23 -52 c55
-126 57 -132 38 -174 -10 -22 -26 -50 -37 -64 l-19 -25 -31 70 c-142 314 -270
532 -383 651 -128 135 -200 186 -367 265 -47 22 -96 45 -109 52 -22 11 -108
133 -100 141 8 8 207 -65 279 -101 112 -57 276 -170 356 -245 l70 -67 32 65
33 66 -43 39 c-150 137 -400 286 -568 339 -41 12 -78 26 -82 29 -5 5 38 91 46
91 1 0 48 -15 104 -34z m-1166 -568 c-16 -29 -71 -124 -123 -210 -52 -86 -123
-207 -158 -267 -35 -61 -65 -111 -68 -111 -2 0 -22 37 -43 82 l-40 82 26 45
c43 75 133 192 198 257 48 48 218 174 234 174 2 0 -10 -24 -26 -52z m1283 -48
c98 -73 175 -150 175 -175 0 -17 -39 -98 -62 -129 -13 -17 -20 -9 -79 94 -35
61 -85 148 -112 192 -26 44 -52 89 -59 101 -11 21 -11 21 18 3 16 -10 70 -49
119 -86z m305 -367 c0 -16 -72 -163 -80 -163 -10 0 -40 57 -40 75 0 15 25 65
67 134 l15 23 19 -28 c10 -16 19 -35 19 -41z m224 -595 c-19 -39 -39 -67 -44
-62 -4 5 -49 89 -99 186 l-91 177 42 77 42 77 93 -192 93 -192 -36 -71z
m-2272 362 c29 -55 33 -70 25 -93 -8 -25 -2 -43 46 -137 55 -107 55 -108 38
-136 -10 -16 -41 -74 -71 -128 -71 -134 -84 -156 -90 -156 -3 0 -45 81 -93
180 l-88 180 92 185 c51 102 95 182 99 178 4 -5 23 -37 42 -73z m54 -1745
c170 -128 339 -214 523 -264 36 -10 66 -22 68 -27 2 -5 -10 -31 -27 -57 -35
-56 -28 -56 -197 8 -200 75 -398 198 -553 343 l-65 61 82 1 83 0 86 -65z m545
34 c47 -66 107 -189 93 -189 -63 0 -383 138 -464 201 -25 18 -24 19 162 19
l187 0 22 -31z m1259 16 c-24 -29 -226 -128 -342 -166 -66 -22 -122 -39 -124
-36 -3 2 24 52 58 110 l63 106 179 1 c155 0 177 -2 166 -15z m410 7 c0 -10
-146 -135 -221 -189 -116 -84 -321 -188 -460 -233 -81 -27 -368 -84 -377 -76
-2 2 16 33 40 69 l43 65 109 22 c220 44 414 130 596 264 l115 84 78 1 c42 1
77 -3 77 -7z m-1426 -439 c20 -32 32 -59 27 -61 -10 -3 -122 15 -128 22 -5 5
50 95 59 96 3 0 23 -26 42 -57z"/>
<path d="M2472 3708 c-49 -84 -104 -179 -122 -210 l-32 -58 247 0 c224 0 247
2 241 16 -4 9 -48 87 -100 173 -51 86 -101 173 -111 194 -9 20 -21 37 -25 37
-4 0 -48 -69 -98 -152z"/>
<path d="M2570 1408 c0 -285 3 -408 11 -398 5 8 19 32 30 53 11 21 61 97 111
170 51 73 92 141 91 152 0 11 -24 61 -53 110 -29 50 -81 143 -117 208 -36 64
-67 117 -69 117 -2 0 -4 -186 -4 -412z"/>
</g>
</svg>
